<svg width="96" height="96" viewBox="0 0 96 96" fill="none" xmlns="http://www.w3.org/2000/svg">
<path d="M94 44.0062H90V28.0062C90 27.0462 89.32 26.2262 88.4 26.0462L70 22.3662V18.7662L74.78 20.2262C74.98 20.2862 75.18 20.3062 75.36 20.3062C76.22 20.3062 77.02 19.7462 77.28 18.8862C77.6 17.8262 77 16.7062 75.96 16.3862L68.9 14.2262C68.8 14.1662 68.7 14.1062 68.6 14.0862L58.6 11.0862L22.6 0.0861924C21.54 -0.233808 20.42 0.366192 20.1 1.40619C19.78 2.46619 20.38 3.58619 21.42 3.90619L26 5.32619V22.3662L7.6 26.0462C6.68 26.2262 6 27.0462 6 28.0062V44.0062H2C0.9 44.0062 0 44.9062 0 46.0062V94.0062C0 95.1062 0.9 96.0062 2 96.0062H40H56H94C95.1 96.0062 96 95.1062 96 94.0062V46.0062C96 44.9062 95.1 44.0062 94 44.0062ZM86 29.6462V44.0062H70V26.4462L86 29.6462ZM66 17.5462V24.0062V44.0062H30V24.0062V6.68619L57.42 14.9062L66 17.5462ZM10 29.6462L26 26.4462V44.0062H10V29.6462ZM42 92.0062V72.0062H54V92.0062H42ZM92 92.0062H58V72.0062H62C63.1 72.0062 64 71.1062 64 70.0062C64 68.9062 63.1 68.0062 62 68.0062H56H40H34C32.9 68.0062 32 68.9062 32 70.0062C32 71.1062 32.9 72.0062 34 72.0062H38V92.0062H4V48.0062H8H28H68H88H92V92.0062Z" fill="white"/>
</svg>
